<?xml version="1.0" encoding="utf-8"?>
<!-- Generator: Adobe Illustrator 26.0.0, SVG Export Plug-In . SVG Version: 6.00 Build 0)  -->
<svg version="1.1" id="Layer_1" xmlns="http://www.w3.org/2000/svg" xmlns:xlink="http://www.w3.org/1999/xlink" x="0px" y="0px"
	 viewBox="0 0 24 24" style="enable-background:new 0 0 24 24;" xml:space="preserve">
<style type="text/css">
	.st0{fill:#F72585;}
</style>
<path class="st0" d="M19.6,6.7c-2-0.4-3.6-2.2-3.8-4.2V2h-3.4v13.7c0,1.6-1.3,2.9-2.9,2.9c-0.9,0-1.8-0.4-2.3-1.2
	c-1-1.3-0.7-3.1,0.5-4c0.5-0.4,1.1-0.6,1.8-0.6c0.3,0,0.6,0,0.9,0.1V9.4c-0.3,0-0.7-0.1-1-0.1c-3.5,0.1-6.3,3-6.2,6.5
	c0,1.6,0.7,3.1,1.8,4.3c2.5,2.5,6.5,2.5,9,0.1c1.2-1.2,1.9-2.8,1.9-4.5v-7c1.4,1,3.1,1.5,4.8,1.5V6.8C20.3,6.8,20,6.8,19.6,6.7
	L19.6,6.7z"/>
</svg>
